<?xml version="1.0" encoding="UTF-8"?>
<svg version="1.1" xmlns="http://www.w3.org/2000/svg" width="1024" height="1024">
<path d="M0 0 C337.92 0 675.84 0 1024 0 C1024 337.92 1024 675.84 1024 1024 C686.08 1024 348.16 1024 0 1024 C0 686.08 0 348.16 0 0 Z " fill="#0F2A5F" transform="translate(0,0)"/>
<path d="M0 0 C0.33 0 0.66 0 1 0 C1 50.49 1 100.98 1 153 C-1.91554678 150.08445322 -4.82318318 147.16838779 -7.70703125 144.22265625 C-9.07541558 142.83583364 -10.44390753 141.44911721 -11.8125 140.0625 C-12.48603516 139.37220703 -13.15957031 138.68191406 -13.85351562 137.97070312 C-18.27517177 133.50673448 -22.86131254 129.61655829 -28 126 C-28.30808594 126.72058594 -28.61617187 127.44117188 -28.93359375 128.18359375 C-40.60920189 153.44536409 -59.48740454 176.4641547 -77 198 C-77.44456543 198.54897949 -77.88913086 199.09795898 -78.34716797 199.66357422 C-90.54319227 214.61143264 -104.41182544 229.53810694 -120 241 C-120.66 241 -121.32 241 -122 241 C-122 241.66 -122 242.32 -122 243 C-124.35797703 244.94026095 -126.72442454 246.76388729 -129.1875 248.5625 C-129.92000977 249.10261719 -130.65251953 249.64273438 -131.40722656 250.19921875 C-133.59860886 251.80820236 -135.797916 253.40570553 -138 255 C-138.56477051 255.41233887 -139.12954102 255.82467773 -139.71142578 256.24951172 C-154.88733812 267.28435523 -171.32840055 276.44824692 -188 285 C-185.57445516 287.42956731 -183.14810766 289.85589525 -180.6875 292.25 C-166.10030211 307.17643505 -159.1336233 323.96530313 -152.35131836 343.37695312 C-147.56396968 357.17403942 -147.56396968 357.17403942 -141.625 370.5 C-141.31570557 371.12140869 -141.00641113 371.74281738 -140.68774414 372.38305664 C-138.8757186 375.83235384 -136.78118351 378.30457986 -134 381 C-134 381.66 -134 382.32 -134 383 C-130.61735827 384.95152408 -127.94081906 386.22735495 -124 386 C-100.42727035 368.68724835 -95.28577772 321.76236206 -91.18310547 295.12533569 C-90.4520715 290.31660819 -89.72978596 285.50660232 -89.0140686 280.6955719 C-86.19220061 261.8131629 -82.53550508 243.28321666 -77 225 C-76.74524902 224.11666992 -76.49049805 223.23333984 -76.22802734 222.32324219 C-72.83029311 210.65378255 -68.82053421 202.28800307 -60.40527344 193.51660156 C-58.03481757 190.95835419 -55.92552843 188.20918266 -53.8125 185.4375 C-53.40475342 184.90753418 -52.99700684 184.37756836 -52.5769043 183.83154297 C-48.98798581 179.10840784 -45.76060216 174.18431449 -42.59375 169.16796875 C-42.0678125 168.45253906 -41.541875 167.73710937 -41 167 C-40.34 167 -39.68 167 -39 167 C-41.32070477 177.30522748 -44.28260112 187.35890156 -47.4375 197.4375 C-47.84025527 198.72623553 -48.24300593 200.01497251 -48.64575195 201.30371094 C-50.02176141 205.69991814 -51.39809111 210.09601013 -52.78662109 214.48828125 C-60.36337091 238.56414358 -65.4831427 263.60860136 -69.328125 288.53125 C-81.22979882 365.41047469 -81.22979882 365.41047469 -104 393 C-104.69480469 393.845625 -105.38960937 394.69125 -106.10546875 395.5625 C-111.82193317 402.25494615 -117.25812121 406.33747552 -126.25 407.375 C-137.07112621 406.29288738 -145.37888264 400.07504444 -152.625 392.3125 C-159.91780296 383.38310989 -164.23290777 373.48592026 -167.71389771 362.6178894 C-168.85205203 359.07932908 -170.04555375 355.55953278 -171.23828125 352.0390625 C-171.47326828 351.34415207 -171.70825531 350.64924164 -171.95036316 349.93327332 C-178.59832764 330.40932144 -186.38724815 309.7284792 -205.0078125 298.82421875 C-208.74821217 296.98640333 -211.06470232 296.88499899 -215 298 C-217.28395672 299.20527625 -217.28395672 299.20527625 -219.4375 300.75 C-220.15808594 301.23984375 -220.87867188 301.7296875 -221.62109375 302.234375 C-238.85960795 315.0288059 -245.99170837 336.69369658 -252.625 356.375 C-259.05491163 375.41838341 -267.46771527 394.19511094 -286.25 403.875 C-291.67892001 406.48572268 -296.93138549 407.96686401 -303 407 C-306.48185884 405.58146492 -309.74106083 403.86988313 -313 402 C-313 401.34 -313 400.68 -313 400 C-313.66 400 -314.32 400 -315 400 C-316.515625 398.1640625 -316.515625 398.1640625 -318.25 395.625 C-318.81203125 394.81289063 -319.3740625 394.00078125 -319.953125 393.1640625 C-324.88974841 385.5330225 -329.1320803 378.01699256 -332.5 369.5625 C-332.88744385 368.59570312 -333.2748877 367.62890625 -333.67407227 366.6328125 C-341.2102013 347.54400303 -346.0805964 327.7137268 -351.21090698 307.8769989 C-352.45102561 303.08877164 -353.71764013 298.30908801 -355.01171875 293.53515625 C-355.29982422 292.46426758 -355.58792969 291.39337891 -355.88476562 290.29003906 C-356.40458067 288.3619173 -356.93024971 286.4353603 -357.46289062 284.51074219 C-357.68525391 283.67833008 -357.90761719 282.84591797 -358.13671875 281.98828125 C-358.42615356 280.92927612 -358.42615356 280.92927612 -358.72143555 279.84887695 C-359 278 -359 278 -358 275 C-357.01 275.33 -356.02 275.66 -355 276 C-353.66636297 276.14403348 -352.32781954 276.24590423 -350.98828125 276.31640625 C-350.23095703 276.35830078 -349.47363281 276.40019531 -348.69335938 276.44335938 C-347.51483398 276.50233398 -347.51483398 276.50233398 -346.3125 276.5625 C-345.51521484 276.60568359 -344.71792969 276.64886719 -343.89648438 276.69335938 C-341.93118553 276.79927368 -339.96561504 276.90012551 -338 277 C-333.57529477 292.2630562 -329.28784934 307.55277336 -325.53613281 322.99682617 C-318.18314668 357.28259089 -318.18314668 357.28259089 -300 386 C-295.15495597 386.43067058 -291.66968491 383.91320164 -288.015625 380.984375 C-276.16136216 369.31389918 -271.99142313 350.55211651 -266.80761719 335.20507812 C-258.9396816 311.96875579 -250.04885837 296.71646848 -229.375 282.6875 C-228.77824463 282.27902832 -228.18148926 281.87055664 -227.56665039 281.44970703 C-222.93280728 278.3798254 -218.12426551 276.13219128 -213 274 C-212.2157666 273.67185303 -211.4315332 273.34370605 -210.62353516 273.00561523 C-208.98579466 272.32209816 -207.34760027 271.63966774 -205.70898438 270.95825195 C-176.8047207 258.84107339 -149.6717718 242.18048414 -126.8203125 220.60546875 C-123.17965567 217.24214727 -119.35413384 214.14973515 -115.47265625 211.0703125 C-96.33122866 195.04352478 -81.39232284 172.86479276 -67.54443359 152.28662109 C-66.14177728 150.20990926 -64.72467776 148.14420785 -63.30078125 146.08203125 C-51.18986414 128.43228495 -40.40164129 109.13900052 -34.4375 88.5 C-32.57711997 82.48954146 -32.57711997 82.48954146 -29.9921875 80.296875 C-27.8125 79.25 -27.8125 79.25 -25.76953125 78.640625 C-23.60894768 78.05641541 -23.60894768 78.05641541 -22 75 C-21.10292474 70.53050115 -20.97515773 66.55817856 -23.53125 62.671875 C-24.7673251 61.30408698 -26.04626205 59.9734151 -27.37109375 58.69140625 C-29 57 -29 57 -30 54 C-31.98823522 55.23552475 -33.96536368 56.48893734 -35.9375 57.75 C-37.03964844 58.44609375 -38.14179687 59.1421875 -39.27734375 59.859375 C-42.0494456 61.7004127 -42.0494456 61.7004127 -42.90625 64 C-43.00741051 66.15809078 -42.88302475 68.1131683 -42.5625 70.25 C-42.376875 71.4875 -42.19125 72.725 -42 74 C-43.98 75.485 -43.98 75.485 -46 77 C-45.319375 77.886875 -44.63875 78.77375 -43.9375 79.6875 C-42 83 -42 83 -42.13671875 85.359375 C-43.20248481 88.61936529 -44.80293246 90.83389824 -46.875 93.5625 C-47.92300781 94.95662109 -47.92300781 94.95662109 -48.9921875 96.37890625 C-49.65476562 97.24386719 -50.31734375 98.10882813 -51 99 C-51.53882813 99.77214844 -52.07765625 100.54429687 -52.6328125 101.33984375 C-53.08398438 101.88769531 -53.53515625 102.43554688 -54 103 C-54.66 103 -55.32 103 -56 103 C-56.20367188 103.52980469 -56.40734375 104.05960937 -56.6171875 104.60546875 C-58.60062523 108.04006572 -61.30105737 110.5533431 -64.125 113.3125 C-64.71611572 113.89499512 -65.30723145 114.47749023 -65.91625977 115.07763672 C-75.1781839 124.15059376 -85.19588476 132.79725651 -96 140 C-97.3921875 139.6596875 -97.3921875 139.6596875 -98.8125 139.3125 C-102.17973057 138.63507533 -102.17973057 138.63507533 -105.0625 141.125 C-106.05974339 142.06450825 -107.0389752 143.0234748 -108 144 C-108.928125 144.9075 -109.85625 145.815 -110.8125 146.75 C-111.8953125 147.86375 -111.8953125 147.86375 -113 149 C-114 150 -114 150 -116.5625 150.0625 C-117.366875 150.041875 -118.17125 150.02125 -119 150 C-119.42104004 151.07870361 -119.42104004 151.07870361 -119.85058594 152.17919922 C-121.78274424 156.9209488 -124.04163567 161.50697271 -126.25 166.125 C-126.71535156 167.10726562 -127.18070313 168.08953125 -127.66015625 169.1015625 C-130.88886311 175.86138953 -134.34827718 182.45933727 -138 189 C-135.32661385 187.00881106 -132.66137054 185.00722896 -130 183 C-129.33742188 182.505 -128.67484375 182.01 -127.9921875 181.5 C-117.62983544 173.61988437 -107.93925038 164.82523684 -98.30078125 156.0859375 C-96.7829983 154.70988301 -95.25965505 153.33993342 -93.73046875 151.9765625 C-88.30154961 147.13285023 -82.9510184 142.20630605 -77.625 137.25 C-76.9345459 136.61175293 -76.2440918 135.97350586 -75.53271484 135.31591797 C-72.04647982 132.05851248 -68.88610856 128.81864836 -66 125 C-63.875 122.6875 -63.875 122.6875 -62 121 C-61.34 121 -60.68 121 -60 121 C-59.7525 120.401875 -59.505 119.80375 -59.25 119.1875 C-57.83629988 116.71352479 -56.34944617 115.56629745 -54 114 C-55.32547236 117.56485852 -56.9078273 120.66794224 -58.94140625 123.87890625 C-59.81043579 125.25236206 -59.81043579 125.25236206 -60.69702148 126.65356445 C-61.62043335 128.09348755 -61.62043335 128.09348755 -62.5625 129.5625 C-63.19293213 130.54887451 -63.82336426 131.53524902 -64.47290039 132.55151367 C-69.02907561 139.62252521 -73.79190733 146.39176836 -79 153 C-79.51949219 153.71027344 -80.03898437 154.42054688 -80.57421875 155.15234375 C-89.6259698 167.39614807 -101.03822126 179.59786273 -112.9375 189.125 C-114.33935547 190.25228516 -114.33935547 190.25228516 -115.76953125 191.40234375 C-116.2795166 191.81081543 -116.78950195 192.21928711 -117.31494141 192.64013672 C-119.20419376 194.1647869 -121.07717576 195.70817856 -122.94921875 197.25390625 C-140.02019049 211.3215586 -140.02019049 211.3215586 -144 213 C-146.30695221 212.66677357 -147.91680537 212.04159732 -150 211 C-149.773125 211.886875 -149.54625 212.77375 -149.3125 213.6875 C-148.93883235 217.64837707 -149.53486558 218.93983313 -152 222 C-155.20937409 224.32402951 -158.11506021 224.47570691 -162 224 C-165.06893364 222.43143392 -166.58955338 221.21546624 -167.70703125 217.90625 C-168.46943416 213.63109348 -168.46149669 211.69224504 -166 208 C-162.52781039 205.68520693 -160.14507581 205.15641796 -156 205 C-155.34 205.33 -154.68 205.66 -154 206 C-153.66226562 204.80503906 -153.32453125 203.61007812 -152.9765625 202.37890625 C-150.66653047 195.46367001 -146.94346661 189.25938424 -143.375 182.9375 C-142.65227836 181.64322206 -141.9302766 180.34854188 -141.20898438 179.0534668 C-138.14531454 173.56099654 -135.05253752 168.0851379 -131.9453125 162.6171875 C-131.5220166 161.87090088 -131.0987207 161.12461426 -130.66259766 160.35571289 C-129.90929759 159.03182204 -129.15143631 157.71051199 -128.38818359 156.39233398 C-126.56068068 153.38979995 -126.56068068 153.38979995 -126 150 C-129.512933 151.48411552 -131.59893502 153.47754789 -134.1875 156.25 C-137.2226144 159.40531695 -140.00674333 161.72719673 -143.8125 163.875 C-148.59760565 166.81584618 -149.68150721 170.3061549 -151.05078125 175.609375 C-152 178 -152 178 -153.9296875 179.296875 C-156.95201279 180.3233251 -158.81078845 180.50026848 -162 180 C-164.67376204 178.31246166 -166.97517971 176.43201556 -169 174 C-169.16858521 173.00021118 -169.16858521 173.00021118 -169.34057617 171.98022461 C-169.55818604 171.32675049 -169.7757959 170.67327637 -170 170 C-171.76541947 169.06561788 -171.76541947 169.06561788 -173.96875 168.61328125 C-180.30471773 166.76487294 -185.44278271 163.22980095 -190.89453125 159.58789062 C-195.09582324 156.97841385 -197.86446141 155.5072962 -202.84375 156.48828125 C-206.0625938 157.49645405 -208.54306014 158.63405791 -211 161 C-211.64839844 161.61875 -212.29679688 162.2375 -212.96484375 162.875 C-215.99431967 166.03821478 -218.929068 169.27403184 -221.80859375 172.57421875 C-223.81734075 174.797805 -225.91376118 176.79468962 -228.125 178.8125 C-230.72786171 181.26632567 -230.72786171 181.26632567 -231.0625 184.8125 C-230.08064184 187.13743187 -230.08064184 187.13743187 -228 189 C-228 190.32 -228 191.64 -228 193 C-227.34 193.1959375 -226.68 193.391875 -226 193.59375 C-220.44536265 195.27171337 -214.92316525 197.01450888 -209.42578125 198.87109375 C-208.4308667 199.20689453 -207.43595215 199.54269531 -206.41088867 199.88867188 C-204.33572296 200.59113125 -202.26167208 201.29689218 -200.1887207 202.00585938 C-195.34279654 203.64178085 -190.53460853 205.17293862 -185.5546875 206.34765625 C-184.72799561 206.54689697 -183.90130371 206.7461377 -183.04956055 206.95141602 C-181.52127513 207.30635734 -179.98604385 207.6330835 -178.44458008 207.92553711 C-176.38671875 208.40625 -176.38671875 208.40625 -173 210 C-171.48604395 212.55546463 -170.78873332 215.15657444 -170 218 C-169.443125 219.093125 -168.88625 220.18625 -168.3125 221.3125 C-167 224 -167 224 -167 227 C-210.49066627 252.20286968 -261.41071537 268.40990096 -312 269 C-313.18609863 269.02433105 -314.37219727 269.04866211 -315.59423828 269.07373047 C-350.9039103 269.78093535 -385.23864803 266.84857272 -417 250 C-417 249.67 -417 249.34 -417 249 C-400.44410161 249.75798089 -400.44410161 249.75798089 -392.53125 250.4765625 C-352.8695873 254.05098789 -313.01642336 254.90199999 -274 246 C-268.56823594 244.7713867 -268.56823594 244.7713867 -265.98046875 245.8125 C-265.38878906 246.204375 -264.79710937 246.59625 -264.1875 247 C-260.2669635 249.15554401 -257.44377201 249.41955248 -253.05078125 248.68359375 C-249.77229279 247.59076426 -248.05755724 245.70054388 -246 243 C-245.67 242.01 -245.34 241.02 -245 240 C-242.39453125 239.1484375 -242.39453125 239.1484375 -238.8125 238.375 C-222.95289661 234.55562228 -194.49546487 226.49546487 -183 215 C-193.44515883 211.71093749 -203.96659916 208.77510859 -214.53515625 205.91210938 C-215.75589844 205.57888672 -216.97664062 205.24566406 -218.234375 204.90234375 C-219.97980591 204.42692139 -219.97980591 204.42692139 -221.76049805 203.94189453 C-224.62740929 203.10833182 -227.39384096 202.15071761 -230.19140625 201.11328125 C-231.44824219 200.74589844 -232.70507812 200.37851562 -234 200 C-237.25814691 202.17345127 -237.25814691 202.17345127 -240 205 C-243.17578125 205.671875 -243.17578125 205.671875 -246 206 C-246.90842681 209.30423306 -247.77033389 212.61899173 -248.625 215.9375 C-248.88023437 216.86369141 -249.13546875 217.78988281 -249.3984375 218.74414062 C-251.0307153 225.20524024 -250.85850042 229.65636195 -249 236 C-248.58615743 239.65560933 -248.53491567 241.23159981 -250.4375 244.375 C-254.22930734 246.77956075 -257.63607528 246.89516404 -262 246 C-264.625 244.0625 -264.625 244.0625 -266 241 C-266.31639302 237.77392119 -266.13400115 235.04946425 -265 232 C-262.2145143 230.04423344 -260.42208464 229 -257 229 C-257.0825 228.113125 -257.165 227.22625 -257.25 226.3125 C-257.27454034 220.30011572 -254.89306833 214.63084192 -253 209 C-252.62617188 207.87722656 -252.25234375 206.75445312 -251.8671875 205.59765625 C-251.58101562 204.74042969 -251.29484375 203.88320313 -251 203 C-252.00417969 203.6290625 -253.00835937 204.258125 -254.04296875 204.90625 C-257.6400907 207.15831886 -261.2394903 209.40671586 -264.84033203 211.65283203 C-266.20621697 212.50485024 -267.57181428 213.35732987 -268.93701172 214.21044922 C-270.6645816 215.28895641 -272.39472893 216.36333172 -274.125 217.4375 C-275.11757813 218.05496094 -276.11015625 218.67242187 -277.1328125 219.30859375 C-280.02901018 221.01711364 -282.97549573 222.53262182 -286 224 C-285.67 226.31 -285.34 228.62 -285 231 C-279.39 231.66 -273.78 232.32 -268 233 C-268 234.32 -268 235.64 -268 237 C-269 238 -269 238 -272.32641602 238.11352539 C-273.80225556 238.11336629 -275.27810069 238.10767314 -276.75390625 238.09765625 C-277.52935287 238.0962413 -278.3047995 238.09482635 -279.10374451 238.09336853 C-281.59003494 238.08775345 -284.0762366 238.07519846 -286.5625 238.0625 C-288.24413933 238.05748694 -289.92578006 238.0529237 -291.60742188 238.04882812 C-295.73831566 238.03777913 -299.86914276 238.02050445 -304 238 C-304.33 237.34 -304.66 236.68 -305 236 C-321.0257896 237.8061346 -336.98601169 239.94252379 -352.94067383 242.28588867 C-365.45414494 244.1188908 -377.45406509 245.14420742 -390.125 245.0625 C-391.47656083 245.05747139 -392.82812348 245.05291091 -394.1796875 245.04882812 C-397.45317265 245.03713711 -400.72656186 245.02075029 -404 245 C-404 244.67 -404 244.34 -404 244 C-402.61941406 243.72736328 -402.61941406 243.72736328 -401.2109375 243.44921875 C-399.31214844 243.07216797 -399.31214844 243.07216797 -397.375 242.6875 C-396.14523437 242.44386719 -394.91546875 242.20023438 -393.6484375 241.94921875 C-391.16353102 241.45479291 -388.69453641 240.92867675 -386.22705078 240.35253906 C-374.30803526 237.62455048 -362.22633452 236.06058112 -350.125 234.375 C-347.89577077 234.06033872 -345.66660358 233.74523763 -343.4375 233.4296875 C-318.12275739 229.85745692 -318.12275739 229.85745692 -313 229.9375 C-312.236875 229.94652344 -311.47375 229.95554687 -310.6875 229.96484375 C-309.8521875 229.98224609 -309.8521875 229.98224609 -309 230 C-308.9071875 228.4221875 -308.9071875 228.4221875 -308.8125 226.8125 C-307.85862552 222.33662744 -306.46953013 220.87717133 -303 218 C-299.83290253 216.41645127 -296.4583366 216.69618351 -293 217 C-291.4221875 217.61875 -291.4221875 217.61875 -289.8125 218.25 C-288.4203125 218.62125 -288.4203125 218.62125 -287 219 C-285.2890934 217.72393019 -283.6283051 216.37991958 -282 215 C-280.20337723 213.84113441 -278.38576155 212.71430651 -276.55078125 211.6171875 C-275.53822266 211.00746094 -274.52566406 210.39773438 -273.48242188 209.76953125 C-272.43634766 209.14433594 -271.39027344 208.51914062 -270.3125 207.875 C-268.22368686 206.62502163 -266.13636987 205.3725386 -264.05078125 204.1171875 C-263.12950439 203.56659668 -262.20822754 203.01600586 -261.2590332 202.44873047 C-258.91945764 201.06179305 -258.91945764 201.06179305 -257 199 C-257.33 198.34 -257.66 197.68 -258 197 C-258.40226867 191.77050726 -257.9287695 188.39315425 -255 184 C-252.5625 181.625 -252.5625 181.625 -249 180 C-247.10114395 180.12770085 -245.20499942 180.29898322 -243.3125 180.5 C-239.08604988 180.65131735 -237.51116639 180.40907393 -234.1640625 177.73046875 C-231.75824134 175.17663654 -229.58495973 172.43848315 -227.40722656 169.68994141 C-225.07292418 166.88667265 -222.44248393 164.39755065 -219.8125 161.875 C-218.16941332 160.2893639 -216.55190789 158.67497988 -215 157 C-215 156.34 -215 155.68 -215 155 C-215.639375 154.56300781 -216.27875 154.12601563 -216.9375 153.67578125 C-219 152 -219 152 -219.75 149.73046875 C-220.19382849 145.21590086 -220.32621039 142.67658452 -218.3125 138.5 C-215.67294898 135.64643133 -213.75579425 134.18196413 -209.8515625 133.77734375 C-209.11679687 133.83019531 -208.38203125 133.88304687 -207.625 133.9375 C-206.89539063 133.96714844 -206.16578125 133.99679687 -205.4140625 134.02734375 C-202.59741446 135.16220679 -202.13477333 136.09914252 -200.42529297 138.53173828 C-198.65622317 140.63656125 -197.61898514 141.82351197 -194.95498657 142.58308411 C-192.53079753 142.71306313 -190.20324194 142.632115 -187.78125 142.46484375 C-186.89351395 142.43269775 -186.00577789 142.40055176 -185.09114075 142.36743164 C-182.22496972 142.25685089 -179.36380333 142.09737317 -176.5 141.9375 C-174.54467391 141.85432971 -172.58918133 141.77498556 -170.63354492 141.69946289 C-166.81014793 141.54991508 -162.98784024 141.38590231 -159.16552734 141.2109375 C-152.87851347 140.93674735 -146.60552425 140.88553222 -140.3125 140.9375 C-139.43078125 140.94193115 -138.5490625 140.9463623 -137.640625 140.95092773 C-135.76037877 140.96211033 -133.88017284 140.97997449 -132 141 C-132.02755371 140.38511719 -132.05510742 139.77023437 -132.08349609 139.13671875 C-132.10492676 138.32847656 -132.12635742 137.52023437 -132.1484375 136.6875 C-132.17599121 135.88699219 -132.20354492 135.08648437 -132.23193359 134.26171875 C-132 132 -132 132 -129.625 129 C-124.67646313 125.22968619 -120.08916433 125.34099953 -114 126 C-110.99802536 127.80118478 -109.54833634 128.90332732 -108 132 C-106.68 132 -105.36 132 -104 132 C-104.28359375 130.98679687 -104.5671875 129.97359375 -104.859375 128.9296875 C-105.02029436 124.43288547 -105.02029436 124.43288547 -102.640625 121.5703125 C-101.53257058 120.4004856 -100.40077927 119.25282385 -99.25 118.125 C-98.65598389 117.51495117 -98.06196777 116.90490234 -97.44995117 116.27636719 C-93.11087362 111.8950052 -88.49653416 107.9557785 -83.63671875 104.16015625 C-79.91989629 101.11511503 -76.61890027 97.71962721 -73.2890625 94.26171875 C-71 92 -71 92 -68.2734375 89.83203125 C-65.92744041 88.20140619 -65.92744041 88.20140619 -65 86 C-66.55585725 85.78290364 -68.11180048 85.56641808 -69.66796875 85.3515625 C-71.30036996 85.10547186 -72.9280135 84.82661922 -74.55078125 84.5234375 C-85.62095241 82.5586654 -96.78333613 82.35362031 -108 82 C-103.17007492 71.84872538 -91.75802026 66.07661747 -82.6171875 60.25 C-61.30248749 46.63587481 -39.8831847 32.83424433 -19.83007812 17.40234375 C-17.95779665 15.96766061 -16.0674623 14.5599567 -14.171875 13.15625 C-12.98910929 12.27146667 -11.80678778 11.38608911 -10.625 10.5 C-9.64789062 9.7678125 -8.67078125 9.035625 -7.6640625 8.28125 C-4.69426513 5.73819771 -2.46230016 3.02784613 0 0 Z " fill="#FBFCFC" transform="translate(717,209)"/>
<path d="M0 0 C5.92048216 1.59542984 11.85749421 3.12703414 17.79296875 4.66552734 C20.89758257 5.47633109 24.00155027 6.28956464 27.10546875 7.10302734 C25.2348 10.84436485 20.57760824 12.01716593 16.91796875 13.72802734 C16.08587891 14.14826172 15.25378906 14.56849609 14.39648438 15.00146484 C2.57017249 20.50789577 -9.12555029 18.26734063 -21.36984253 15.2817688 C-24.85987102 14.4349983 -28.36334786 13.64816249 -31.8671875 12.86083984 C-32.55857315 12.70496902 -33.2499588 12.54909821 -33.96229553 12.38850403 C-58.71852378 6.87698478 -82.86841787 4.79690179 -105.83984375 17.14208984 C-119.43804709 25.87137127 -127.0162256 43.88110105 -130.89453125 59.10302734 C-137.18540441 88.2740392 -129.5555628 119.67822933 -122.89453125 148.10302734 C-122.68683105 148.99425293 -122.47913086 149.88547852 -122.26513672 150.80371094 C-119.68094961 161.78903174 -116.6363988 172.45606401 -112.89453125 183.10302734 C-112.28673354 184.91431295 -111.68197135 186.72662396 -111.08203125 188.54052734 C-110.69015625 189.71615234 -110.29828125 190.89177734 -109.89453125 192.10302734 C-112.18762088 193.24957216 -113.69362781 193.30031852 -116.24609375 193.41943359 C-117.52226562 193.48227539 -117.52226562 193.48227539 -118.82421875 193.54638672 C-119.71367187 193.58570313 -120.603125 193.62501953 -121.51953125 193.66552734 C-122.8653125 193.73030273 -122.8653125 193.73030273 -124.23828125 193.79638672 C-126.45687408 193.90259595 -128.67558005 194.00463929 -130.89453125 194.10302734 C-139.97242474 165.39594612 -147.76384108 137.00409678 -151.89453125 107.10302734 C-152.06960205 105.83628174 -152.24467285 104.56953613 -152.42504883 103.2644043 C-152.92018239 99.24262161 -153.10390179 95.23484075 -153.16796875 91.18505859 C-153.18045151 90.45365158 -153.19293427 89.72224457 -153.20579529 88.96867371 C-153.42884695 72.77658065 -153.29507943 57.57803892 -147.89453125 42.10302734 C-147.49878906 40.94673828 -147.10304688 39.79044922 -146.6953125 38.59912109 C-145.56874991 35.66856125 -144.31114052 32.9035863 -142.89453125 30.10302734 C-142.41628906 29.13623047 -141.93804687 28.16943359 -141.4453125 27.17333984 C-131.74656378 9.09092697 -116.5121627 -2.3610425 -97.00341797 -8.49121094 C-64.82800562 -18.00766301 -31.31945367 -8.44459688 0 0 Z " fill="#FCFCFD" transform="translate(475.89453125,238.89697265625)"/>
<path d="M0 0 C52.25452303 0 52.25452303 0 67.76953125 14.625 C76.84624803 24.28987531 78.66094179 37.45060761 78.34375 50.296875 C77.30472723 61.48998392 72.95510325 72.05615403 64.93359375 80.0625 C46.03766829 95.74713223 24.28196646 92 0 92 C0 61.64 0 31.28 0 0 Z " fill="#FDFDFD" transform="translate(174,654)"/>
<path d="M0 0 C45.63087248 0 45.63087248 0 56 9 C62.93290535 16.57511132 63.47292756 23.10041505 63.265625 33.078125 C62.74417625 40.77716245 60.02720638 44.25868894 54.4375 49.375 C52.01639355 51.42457072 49.64314508 53.23790328 47 55 C47.50450684 55.94319092 48.00901367 56.88638184 48.52880859 57.8581543 C50.40626904 61.36977829 52.28030045 64.88322258 54.15332031 68.3972168 C54.96326308 69.91561669 55.77412537 71.43352647 56.5859375 72.95092773 C57.75504851 75.13656357 58.92080248 77.32396133 60.0859375 79.51171875 C60.44746918 80.18587326 60.80900085 80.86002777 61.18148804 81.55461121 C62.99768257 84.97283221 64.65071097 88.37035146 66 92 C60.93544152 92.46170589 55.8986755 92.72112406 50.8125 92.58203125 C49.97847656 92.56116455 49.14445313 92.54029785 48.28515625 92.51879883 C45.3257403 91.84692288 44.2479255 90.65582796 42.375 88.3125 C41.53693421 86.22637939 40.75614028 84.1171928 40 82 C38.75214289 79.29152242 37.44917824 76.6132057 36.14306641 73.93237305 C34.40163992 70.34483916 32.72409945 66.72887903 31.04980469 63.10961914 C29.95012814 60.78877935 29.95012814 60.78877935 28 58 C24.7 57.67 21.4 57.34 18 57 C18 68.55 18 80.1 18 92 C12.06 92 6.12 92 0 92 C0 61.64 0 31.28 0 0 Z " fill="#FDFDFD" transform="translate(512,654)"/>
<path d="M0 0 C2.5625 1.625 2.5625 1.625 4 3 C4 3.66 4 4.32 4 5 C4.66 5 5.32 5 6 5 C6 2.69 6 0.38 6 -2 C11.61 -2 17.22 -2 23 -2 C23 19.45 23 40.9 23 63 C17.39 63 11.78 63 6 63 C5.505 59.04 5.505 59.04 5 55 C4.34644531 55.61488281 4.34644531 55.61488281 3.6796875 56.2421875 C3.08414063 56.78101563 2.48859375 57.31984375 1.875 57.875 C1.29492188 58.40867187 0.71484375 58.94234375 0.1171875 59.4921875 C-6.16263461 63.96453313 -13.62298094 63.69430768 -21 63 C-28.63625561 61.13853049 -35.14089979 57.39510618 -39.46875 50.7421875 C-45.40932125 39.72450013 -46.47081068 28.52776611 -42.90234375 16.60546875 C-40.09434834 8.49753396 -35.12197449 2.88801215 -27.64453125 -1.328125 C-18.00750804 -5.67934056 -9.12882952 -5.24623605 0 0 Z " fill="#FBFCFC" transform="translate(698,683)"/>
<path d="M0 0 C0.68288086 0.21615967 1.36576172 0.43231934 2.06933594 0.6550293 C15.94778033 5.03127244 29.8100321 9.12223614 43.96630859 12.49511719 C47.00262527 13.24891105 49.99876871 14.11751875 53 15 C49.34768071 18.14868368 45.78583319 20.22205238 41.3984375 22.20703125 C40.76838806 22.49356567 40.13833862 22.7801001 39.48919678 23.07531738 C37.4549365 23.99645651 35.41561106 24.9055252 33.375 25.8125 C32.68114197 26.12303314 31.98728394 26.43356628 31.2723999 26.75350952 C22.96798347 30.46596632 14.64401317 34.11499381 6.125 37.3125 C5.41520996 37.58360596 4.70541992 37.85471191 3.97412109 38.1340332 C-0.96865749 39.91069742 -5.77081602 40.61391723 -11 41 C-11.185625 41.90685547 -11.185625 41.90685547 -11.375 42.83203125 C-12.38721802 46.34316252 -14.13046467 47.78806652 -17 50 C-20.85293652 51.27697325 -24.339102 51.67945827 -28.1484375 50.12109375 C-30.1875 49 -30.1875 49 -31.98046875 47.8125 C-35.86432824 46.24994144 -39.85670917 47.96730672 -43.80078125 48.8671875 C-85.20377222 58.31343263 -130.13959777 56.49632479 -172 51 C-172 50.67 -172 50.34 -172 50 C-166.22240116 49.87963336 -160.72040011 50.1679418 -155 51 C-155 50.01 -155 49.02 -155 48 C-159.95 48 -164.9 48 -170 48 C-170 47.67 -170 47.34 -170 47 C-165.46217801 46.25074577 -161.0905729 45.90556184 -156.49609375 45.8112793 C-145.05675007 45.53730265 -133.82449813 44.21753324 -122.5 42.6875 C-121.68944153 42.5780304 -120.87888306 42.46856079 -120.04376221 42.35577393 C-114.36056309 41.58438892 -108.68005438 40.79415886 -103 40 C-97.92713478 39.29229164 -92.85372168 38.5890281 -87.77880859 37.89614868 C-85.8516971 37.63040517 -83.92582819 37.35569983 -82 37.08081055 C-80.85144531 36.92265869 -79.70289063 36.76450684 -78.51953125 36.6015625 C-77.52026611 36.46057129 -76.52100098 36.31958008 -75.49145508 36.17431641 C-73 36 -73 36 -70 37 C-70 37.66 -70 38.32 -70 39 C-69.10087891 38.89171875 -69.10087891 38.89171875 -68.18359375 38.78125 C-57.14713212 37.65091538 -46.08049156 37.90846061 -35 38 C-34.67 37.01 -34.34 36.02 -34 35 C-39.94 34.34 -45.88 33.68 -52 33 C-52.495 28.545 -52.495 28.545 -53 24 C-51.47632813 23.27296875 -51.47632813 23.27296875 -49.921875 22.53125 C-41.10812028 18.26299424 -33.02545251 13.63438849 -25 8 C-19.25174825 4 -19.25174825 4 -17 4 C-17.62347079 8.31883414 -18.64642395 12.29217333 -20 16.4375 C-21.16277327 20.05364241 -22.16465721 23.33073961 -22.375 27.125 C-23 30 -23 30 -25.9375 31.9375 C-29 33 -29 33 -31 33 C-31.34946465 38.88292513 -31.34946465 38.88292513 -30.0625 44.5625 C-27.14108837 46.59863538 -24.64902094 46.43941503 -21.15625 46.43359375 C-18.52071695 45.90362243 -17.60790904 45.12528041 -16 43 C-15.56583853 39.35304369 -16.14660278 36.43931091 -17.1328125 32.96875 C-18.39559767 27.36232591 -17.48661201 22.64915199 -16.1875 17.125 C-15.92936523 15.72121094 -15.92936523 15.72121094 -15.66601562 14.2890625 C-15.04066291 11.56025065 -14.43722779 9.40585647 -13 7 C-10.73660678 5.73335491 -8.79201737 5.1618296 -6.24731445 4.69091797 C-3.34860257 3.79973333 -1.98790321 2.23656792 0 0 Z " fill="#0F275A" transform="translate(483,408)"/>
<path d="M0 0 C8.10037981 4.21429809 14.58283337 10.56100011 17.53125 19.40625 C19.65661939 31.16662729 18.85393931 42.74353529 12 52.6875 C7.33695054 58.36468815 0.33058798 62.77379256 -7 64 C-19.26243725 64.69688168 -29.1783612 64.26513095 -38.921875 56.0546875 C-46.96659918 48.10069329 -48.66216233 38.90888722 -49 28 C-48.49070997 17.85146462 -44.26895699 10.50258936 -37.03515625 3.5390625 C-33.40557221 0.79423311 -29.29344154 -0.6038809 -25 -2 C-16.91849794 -4.69383402 -7.69623427 -3.34893609 0 0 Z " fill="#FCFCFD" transform="translate(484,682)"/>
<path d="M0 0 C0.7115625 0.60972656 1.423125 1.21945313 2.15625 1.84765625 C0.26267909 3.28821977 -1.63347722 4.72514635 -3.53125 6.16015625 C-4.06169922 6.56427734 -4.59214844 6.96839844 -5.13867188 7.38476562 C-6.69310801 8.55774504 -8.2682637 9.70310598 -9.84375 10.84765625 C-10.64296875 11.47414062 -11.4421875 12.100625 -12.265625 12.74609375 C-15.9624923 14.32566432 -18.73500837 13.29111785 -22.40625 12.16015625 C-23.84286896 11.76242881 -25.2803815 11.36791555 -26.71875 10.9765625 C-27.42257812 10.78078613 -28.12640625 10.58500977 -28.8515625 10.38330078 C-45.00134532 6.04106751 -60.70020068 7.74065691 -76.84375 10.84765625 C-77.55257324 10.98155762 -78.26139648 11.11545898 -78.99169922 11.25341797 C-95.27862618 14.42769502 -110.57391564 20.62864446 -125.84350586 26.98193359 C-154.11141522 38.725934 -181.99750218 47.37294172 -212.84375 43.84765625 C-212.84375 43.18765625 -212.84375 42.52765625 -212.84375 41.84765625 C-212.01520508 41.62215088 -212.01520508 41.62215088 -211.16992188 41.39208984 C-208.55902477 40.67663482 -205.95146161 39.94963272 -203.34375 39.22265625 C-202.47621094 38.98675781 -201.60867188 38.75085938 -200.71484375 38.5078125 C-186.39060761 34.48878222 -173.02071349 28.73003625 -159.65518188 22.27340698 C-157.15421681 21.06651442 -154.64856233 19.8698968 -152.14135742 18.67602539 C-146.21946854 15.85572701 -140.30014323 13.03018402 -134.39013672 10.18505859 C-113.47879333 0.14554163 -91.80933814 -7.53038791 -68.84375 -11.15234375 C-67.74804688 -11.34054688 -66.65234375 -11.52875 -65.5234375 -11.72265625 C-45.09163333 -14.10853572 -17.20470463 -13.02169266 0 0 Z " fill="#FBFCFC" transform="translate(655.84375,239.15234375)"/>
<path d="M0 0 C7.63864206 6.37510728 11.53264667 12.71184037 13.703125 22.421875 C13.703125 26.381875 13.703125 30.341875 13.703125 34.421875 C-2.136875 34.421875 -17.976875 34.421875 -34.296875 34.421875 C-30.27986041 41.76863054 -30.27986041 41.76863054 -23.734375 44.828125 C-18.15129139 46.1881069 -13.86046664 45.36593033 -8.984375 42.421875 C-8.0975 41.761875 -7.210625 41.101875 -6.296875 40.421875 C-3.36431971 39.11633025 -2.20471501 39.45025761 0.9375 40.41796875 C2.67773438 41.13146484 2.67773438 41.13146484 4.453125 41.859375 C5.62359375 42.33246094 6.7940625 42.80554688 8 43.29296875 C8.89203125 43.66550781 9.7840625 44.03804687 10.703125 44.421875 C8.66590254 51.65401474 4.8125228 54.87867237 -1.44921875 58.75390625 C-9.89450927 62.83940576 -20.24483562 62.68271654 -29.296875 60.796875 C-36.80977637 58.16735952 -43.48500505 52.72691772 -47.734375 45.984375 C-52.45583442 35.21944753 -52.47986474 24.7189813 -48.74609375 13.609375 C-44.98167273 5.3296781 -38.81506399 0.00784086 -30.65625 -3.73828125 C-20.24349693 -7.44480759 -9.16504993 -6.29707512 0 0 Z " fill="#FAFBFC" transform="translate(633.296875,684.578125)"/>
<path d="M0 0 C8.17049884 6.07284304 12.23649097 14.15374124 14 24 C14 27.63 14 31.26 14 35 C-1.84 35 -17.68 35 -34 35 C-30.6155214 41.81714096 -30.6155214 41.81714096 -25 45 C-18.17091981 46.5097103 -13.26128286 46.13064143 -7 43 C-6.34 42.01 -5.68 41.02 -5 40 C0.76044212 40.60636233 5.72014369 42.75658279 11 45 C9.99800359 50.72569375 6.80556012 53.4458737 2.6796875 57.16796875 C-3.51383344 61.4023147 -9.52896947 62.53543793 -16.9375 62.4375 C-17.72801758 62.43137695 -18.51853516 62.42525391 -19.33300781 62.41894531 C-25.2969893 62.25895406 -29.9301079 61.2778497 -35 58 C-36.051875 57.401875 -37.10375 56.80375 -38.1875 56.1875 C-45.28879787 50.66426833 -48.61859162 44.77679869 -50.6875 36.125 C-51.68201671 26.17983292 -51.2212586 17.14808027 -45.25 8.75 C-33.29142733 -5.83003319 -16.71349232 -8.81567347 0 0 Z " fill="#FAFBFC" transform="translate(311,684)"/>
<path d="M0 0 C5.61 0 11.22 0 17 0 C17.33 10.56 17.66 21.12 18 32 C20.97 29.525 20.97 29.525 24 27 C29.41460363 24.47318497 35.4597872 23.82627353 41.1796875 25.72265625 C47.72446373 28.77276894 52.01749246 33.12148745 55.1619873 39.59106445 C56.76622146 44.20256582 56.48537433 48.88884501 56.390625 53.71875 C56.38496521 54.81723267 56.37930542 55.91571533 56.37347412 57.04748535 C56.35120753 60.5321132 56.30102752 64.01568656 56.25 67.5 C56.22992252 69.87238091 56.21167394 72.24477805 56.1953125 74.6171875 C56.1513743 80.41186034 56.08241272 86.20575181 56 92 C50.72 92 45.44 92 40 92 C39.970271 90.19196899 39.970271 90.19196899 39.93994141 88.34741211 C39.86357953 83.8538812 39.77491014 79.36066124 39.68261719 74.86743164 C39.64445341 72.92673911 39.60957905 70.98597889 39.578125 69.04516602 C39.53219974 66.24731332 39.47425172 63.44992162 39.4140625 60.65234375 C39.40251129 59.7916478 39.39096008 58.93095184 39.37905884 58.04417419 C39.25715838 53.01150155 38.60635463 48.77679139 37 44 C30.31235956 42.13947669 30.31235956 42.13947669 23.5625 43 C20.04999712 45.74146566 18.33093311 48.63745522 17.70303345 53.12005615 C17.5584921 55.60165878 17.50662565 58.06895605 17.48828125 60.5546875 C17.47033005 61.45623566 17.45237885 62.35778381 17.43388367 63.28665161 C17.3799585 66.14938768 17.34594225 69.01195871 17.3125 71.875 C17.2793112 73.82293954 17.2448201 75.77085736 17.20898438 77.71875 C17.12424228 82.47904726 17.05734641 87.23929708 17 92 C11.39 92 5.78 92 0 92 C0 61.64 0 31.28 0 0 Z " fill="#FDFDFE" transform="translate(801,654)"/>
<path d="M0 0 C6.005944 0.09099915 11.62821116 2.92359467 16.0234375 6.9375 C19.57782093 11.04661379 20.43860233 14.2859186 20.42602539 19.58081055 C20.42594986 20.64168381 20.42587433 21.70255707 20.42579651 22.795578 C20.42063522 23.93940445 20.41547394 25.0832309 20.41015625 26.26171875 C20.4087413 27.43386429 20.40732635 28.60600983 20.40586853 29.81367493 C20.40026388 33.56330907 20.38771056 37.31288385 20.375 41.0625 C20.3699856 43.60221268 20.36542259 46.1419263 20.36132812 48.68164062 C20.35029294 54.91278335 20.33302515 61.1438816 20.3125 67.375 C15.0325 67.375 9.7525 67.375 4.3125 67.375 C4.29791748 66.06829346 4.28333496 64.76158691 4.26831055 63.4152832 C4.21027185 58.56018925 4.13303884 53.70555637 4.05004883 48.85083008 C4.01682578 46.75097139 3.9887857 44.65102397 3.96606445 42.55102539 C3.93247064 39.52972656 3.88015166 36.50923899 3.82421875 33.48828125 C3.81782883 32.55164139 3.8114389 31.61500153 3.80485535 30.64997864 C3.69505212 25.76542513 3.51618912 22.32557357 0.3125 18.375 C-2.90272137 16.04673625 -5.79580425 15.97788819 -9.6875 16.375 C-13.49023069 18.10351395 -15.13444856 19.53972348 -16.6875 23.375 C-17.0098471 25.55203729 -17.0098471 25.55203729 -17.00634766 27.86816406 C-17.02621735 28.74877502 -17.04608704 29.62938599 -17.06655884 30.53668213 C-17.08388565 31.94938385 -17.08388565 31.94938385 -17.1015625 33.390625 C-17.12092865 34.36159119 -17.1402948 35.33255737 -17.1602478 36.33294678 C-17.21996509 39.43020886 -17.2663978 42.52750826 -17.3125 45.625 C-17.35068698 47.72657859 -17.38973914 49.82814165 -17.4296875 51.9296875 C-17.52566031 57.07799868 -17.6097206 62.22638312 -17.6875 67.375 C-23.2975 67.375 -28.9075 67.375 -34.6875 67.375 C-34.6875 45.595 -34.6875 23.815 -34.6875 1.375 C-29.0775 1.375 -23.4675 1.375 -17.6875 1.375 C-17.6875 3.355 -17.6875 5.335 -17.6875 7.375 C-17.0275 7.375 -16.3675 7.375 -15.6875 7.375 C-15.6875 6.715 -15.6875 6.055 -15.6875 5.375 C-10.1975364 2.0379633 -6.41601712 0.65247632 0 0 Z " fill="#FAFBFC" transform="translate(367.6875,678.625)"/>
<path d="M0 0 C1.36328125 1.3671875 1.36328125 1.3671875 1.36328125 3.3671875 C2.02328125 3.3671875 2.68328125 3.3671875 3.36328125 3.3671875 C4.03483058 4.65632237 4.70036984 5.94858954 5.36328125 7.2421875 C5.73453125 7.96148438 6.10578125 8.68078125 6.48828125 9.421875 C7.36328125 11.3671875 7.36328125 11.3671875 7.36328125 13.3671875 C2.08328125 14.6871875 -3.19671875 16.0071875 -8.63671875 17.3671875 C-9.95671875 15.3871875 -11.27671875 13.4071875 -12.63671875 11.3671875 C-17.25773048 8.0923796 -23.26063688 8.46659067 -28.63671875 9.3671875 C-33.0863937 11.78730851 -35.83678937 14.86332026 -38.19921875 19.3046875 C-38.97689458 24.74841834 -38.50957889 28.74616153 -35.88671875 33.6171875 C-32.86381779 37.31184423 -30.19546965 39.84760387 -25.63671875 41.3671875 C-20.38777708 41.76333404 -17.08329781 41.23276067 -12.63671875 38.3671875 C-10.29346211 35.81578897 -10.29346211 35.81578897 -8.63671875 33.3671875 C-6.90654367 33.82169934 -5.17761998 34.28097607 -3.44921875 34.7421875 C-2.00482422 35.12503906 -2.00482422 35.12503906 -0.53125 35.515625 C2.18538332 36.31485046 4.754653 37.2703237 7.36328125 38.3671875 C5.10080837 47.00572031 0.33718878 50.72171428 -7.0390625 55.0703125 C-15.08130228 59.08538559 -23.68489269 59.7457658 -32.453125 57.71484375 C-42.7258182 53.96908864 -48.89311889 48.16129721 -53.54296875 38.33203125 C-57.02122261 28.90347883 -56.54943353 18.22799615 -52.63671875 9.01171875 C-48.15039912 0.20141342 -41.80875473 -4.29593846 -32.63671875 -7.6328125 C-20.84162407 -11.2620724 -9.42458104 -7.29035728 0 0 Z " fill="#FBFBFC" transform="translate(785.63671875,687.6328125)"/>
<path d="M0 0 C14.53104398 0 24.79587467 0.69552602 35.55859375 10.40625 C41.45223624 16.70212922 42.59717298 24.70155676 42.34375 33.01171875 C41.38869087 41.31422142 37.5532547 48.74337858 31 54 C20.60590312 59.60862677 12.04582272 60 0 60 C0 40.2 0 20.4 0 0 Z " fill="#10295D" transform="translate(192,670)"/>
<path d="M0 0 C5.61 0 11.22 0 17 0 C17 5.28 17 10.56 17 16 C20.3 16 23.6 16 27 16 C27 20.95 27 25.9 27 31 C23.7 31 20.4 31 17 31 C17 47.5 17 64 17 81 C11.39 81 5.78 81 0 81 C0 64.5 0 48 0 31 C-2.64 31 -5.28 31 -8 31 C-8 26.05 -8 21.1 -8 16 C-5.36 16 -2.72 16 0 16 C0 10.72 0 5.44 0 0 Z " fill="#FEFEFE" transform="translate(404,665)"/>
<path d="M0 0 C1.80307617 0.00483398 1.80307617 0.00483398 3.64257812 0.00976562 C4.88845703 0.01814453 6.13433594 0.02652344 7.41796875 0.03515625 C8.68318359 0.03966797 9.94839844 0.04417969 11.25195312 0.04882812 C14.36983985 0.06059374 17.48763008 0.07703353 20.60546875 0.09765625 C17.83804064 2.86508436 15.50949685 2.7744516 11.66796875 3.41015625 C-0.52741587 5.65372241 -11.66818277 11.02813575 -20.39453125 20.03515625 C-21.38453125 21.05609375 -21.38453125 21.05609375 -22.39453125 22.09765625 C-23.05453125 22.09765625 -23.71453125 22.09765625 -24.39453125 22.09765625 C-24.64589844 22.63519531 -24.89726562 23.17273438 -25.15625 23.7265625 C-26.66708534 26.61955005 -28.43509791 29.2942498 -30.20703125 32.03515625 C-39.32876891 46.61132072 -41.75050424 61.27624018 -41.6003418 78.22314453 C-41.58217325 80.33118005 -41.5798326 82.43876941 -41.58007812 84.546875 C-41.55468293 94.09380174 -41.08836094 103.57725894 -40.39453125 113.09765625 C-42.50066581 110.99152169 -42.90861332 110.00290188 -43.76171875 107.23046875 C-44.00583496 106.43793701 -44.24995117 105.64540527 -44.50146484 104.82885742 C-52.08755889 79.08774046 -58.32226278 51.2765265 -45.58203125 26.03515625 C-38.2105926 13.79199948 -25.10583661 4.78916154 -11.39453125 1.09765625 C-7.53336314 0.18080144 -3.96552326 -0.01879395 0 0 Z " fill="#F9FAFB" transform="translate(412.39453125,261.90234375)"/>
<path d="M0 0 C5.27322153 1.82534591 7.79691086 4.60719203 11 9 C12.69868838 14.09606514 13.01153119 19.99289368 11.28125 25.13671875 C8.86061051 29.63637523 5.5393711 32.73031445 1 35 C-4.06473911 35.68568776 -8.94733311 36.1674543 -13.5 33.578125 C-17.44261523 30.18631631 -20.61388707 26.99362879 -21.30078125 21.66796875 C-21.33052179 15.37288707 -20.959871 10.02838653 -16.3125 5.2734375 C-10.85304607 0.47366758 -7.27892514 -0.66395601 0 0 Z " fill="#0F285C" transform="translate(692,695)"/>
<path d="M0 0 C4.89186906 2.35534436 7.81078942 5.7173458 11 10 C12.64480616 14.93441849 12.5902043 19.26410499 10.9375 24.125 C8.13791431 28.27922393 4.51223683 31.74388159 0 34 C-4.92857617 34.54072508 -8.84745771 34.58714419 -13.3125 32.3125 C-21.70390706 25.09198695 -21.70390706 25.09198695 -22.23828125 19.51171875 C-22.3971382 13.46679394 -22.30338136 9.63441069 -18 5 C-12.73405628 -0.38042076 -7.34395878 -1.18881027 0 0 Z " fill="#10285C" transform="translate(474,696)"/>
<path d="M0 0 C-0.88042969 0.73605469 -1.76085937 1.47210938 -2.66796875 2.23046875 C-3.84124844 3.21602369 -5.01441977 4.20170766 -6.1875 5.1875 C-6.76564453 5.67025391 -7.34378906 6.15300781 -7.93945312 6.65039062 C-10.65112649 8.93309871 -13.22844134 11.22844134 -15.73828125 13.73828125 C-19.96308186 17.96308186 -19.96308186 17.96308186 -23.5234375 18.08984375 C-24.46445312 18.03957031 -25.40546875 17.98929687 -26.375 17.9375 C-30.93973426 17.82924543 -33.20374555 18.35412569 -37 21 C-39.1875 20.875 -39.1875 20.875 -41 20 C-41.66 19.01 -42.32 18.02 -43 17 C-45.39068658 15.57442006 -45.39068658 15.57442006 -48.2265625 14.30078125 C-49.2578125 13.81416016 -50.2890625 13.32753906 -51.3515625 12.82617188 C-52.43179688 12.32666016 -53.51203125 11.82714844 -54.625 11.3125 C-55.71296875 10.80138672 -56.8009375 10.29027344 -57.921875 9.76367188 C-60.61117211 8.50158946 -63.30387351 7.24740955 -66 6 C-66 5.34 -66 4.68 -66 4 C-59.84185813 3.16201077 -53.70972563 2.66207451 -47.5078125 2.28125 C-46.52183075 2.21844849 -45.535849 2.15564697 -44.51998901 2.09094238 C-41.38846656 1.89165946 -38.25675925 1.69552374 -35.125 1.5 C-32.00039716 1.30425922 -28.87585039 1.10775864 -25.75143433 0.90905762 C-23.81479918 0.78594373 -21.87805722 0.6644939 -19.94119263 0.54504395 C-14.6060306 0.2064637 -9.31233223 -0.26076619 -4.00460815 -0.9041748 C-2 -1 -2 -1 0 0 Z " fill="#10275A" transform="translate(587,355)"/>
<path d="M0 0 C17.82247191 -0.69213483 17.82247191 -0.69213483 25 5.8125 C27.02567067 10.24365459 27.49460466 13.64634513 25.8125 18.25 C23.0962038 22.371277 21.18669431 23.59737157 16.5 25.1875 C12 26 12 26 0 26 C0 17.42 0 8.84 0 0 Z " fill="#11295C" transform="translate(530,670)"/>
<path d="M0 0 C3.40048255 5.10072383 2.11020139 10.99402433 2 17 C-4.27 17.33 -10.54 17.66 -17 18 C-14.36 19.32 -11.72 20.64 -9 22 C-12 23 -12 23 -14.9375 22.3125 C-15.948125 22.209375 -16.95875 22.10625 -18 22 C-20.0624994 23.81222534 -20.0624994 23.81222534 -22 26 C-27.25519697 28.62759848 -32.40427308 28.36136168 -38 27 C-40.78006518 25.72474074 -43.03173143 24.35409394 -45 22 C-45.66 20.02 -46.32 18.04 -47 16 C-31.16 16 -15.32 16 1 16 C0.67 10.72 0.34 5.44 0 0 Z M-20 18 C-19 21 -19 21 -19 21 Z " fill="#0D2151" transform="translate(324,703)"/>
<path d="M0 0 C15.84 0 31.68 0 48 0 C48 0.33 48 0.66 48 1 C41.07 1 34.14 1 27 1 C27 1.66 27 2.32 27 3 C28.32 3.66 29.64 4.32 31 5 C25.35036635 9.36744729 20.36690049 12.74810177 13 12 C8.21950599 10.74521655 4.31779963 9.00275334 1.4375 4.875 C0 2 0 2 0 0 Z " fill="#0D2253" transform="translate(599,719)"/>
<path d="M0 0 C2.51290711 1.70070937 4.15871194 3.68722648 5.80078125 6.21875 C5.80078125 6.54875 5.80078125 6.87875 5.80078125 7.21875 C-4.42921875 7.21875 -14.65921875 7.21875 -25.19921875 7.21875 C-18.26566472 -2.48822564 -10.83276843 -5.8896605 0 0 Z " fill="#0E2254" transform="translate(302.19921875,697.78125)"/>
<path d="M0 0 C4.37196067 1.97547853 7.20024029 4.16612566 9.859375 8.265625 C9.859375 8.595625 9.859375 8.925625 9.859375 9.265625 C-0.040625 9.265625 -9.940625 9.265625 -20.140625 9.265625 C-16.64826541 0.53472603 -9.03000884 -3.09788624 0 0 Z " fill="#0E2254" transform="translate(620.140625,695.734375)"/>
<path d="M0 0 C0.66 0.33 1.32 0.66 2 1 C2 14.86 2 28.72 2 43 C1.01 43 0.02 43 -1 43 C-1.02467332 37.19759432 -1.04284724 31.39521902 -1.05493164 25.59277344 C-1.0599681 23.61783313 -1.06679751 21.64289657 -1.07543945 19.66796875 C-1.08753508 16.83332395 -1.0932351 13.99872834 -1.09765625 11.1640625 C-1.10281754 10.27756012 -1.10797882 9.39105774 -1.11329651 8.47769165 C-1.11387171 2.22774341 -1.11387171 2.22774341 0 0 Z " fill="#233564" transform="translate(819,703)"/>
<path d="M0 0 C0.33 0 0.66 0 1 0 C1.12117188 0.62648438 1.24234375 1.25296875 1.3671875 1.8984375 C1.53476562 2.71570313 1.70234375 3.53296875 1.875 4.375 C2.03742188 5.18710937 2.19984375 5.99921875 2.3671875 6.8359375 C2.86658932 9.18673923 2.86658932 9.18673923 5 11 C10.63618582 11.86797262 15.15029193 11.07542463 20 8 C20.66 7.34 21.32 6.68 22 6 C21.67537556 8.92161999 20.78173807 10.29328947 19 12.6875 C15.05758205 15.72644717 11.9412091 16.44470882 7 16 C4.10465316 14.99070656 1.61398988 13.58406667 -1 12 C-2.32817673 11.32311834 -3.66022353 10.65362163 -5 10 C-4.01 9.67 -3.02 9.34 -2 9 C-2.04125 8.071875 -2.0825 7.14375 -2.125 6.1875 C-2 3 -2 3 0 0 Z " fill="#0E2658" transform="translate(450,443)"/>
<path d="M0 0 C0.99 0.33 1.98 0.66 3 1 C1.42986223 6.96652354 -1.75029782 11.82909025 -5 17 C-5.33 16.34 -5.66 15.68 -6 15 C-5.22265625 13.2734375 -5.22265625 13.2734375 -4.0625 11.375 C-3.381875 10.26125 -2.70125 9.1475 -2 8 C-5.79588866 8.54226981 -7.47211993 10.20127563 -10 13 C-10.66 12.67 -11.32 12.34 -12 12 C-8.04 8.04 -4.08 4.08 0 0 Z " fill="#0C1A4C" transform="translate(589,358)"/>
<path d="M0 0 C0.33 0 0.66 0 1 0 C1.10957031 0.61488281 1.21914063 1.22976563 1.33203125 1.86328125 C1.49058594 2.67152344 1.64914062 3.47976563 1.8125 4.3125 C1.96332031 5.11300781 2.11414063 5.91351563 2.26953125 6.73828125 C3.07572236 9.23445587 4.02052002 10.32422106 6 12 C4.515 14.475 4.515 14.475 3 17 C2.34 16.67 1.68 16.34 1 16 C1 15.01 1 14.02 1 13 C0.34 12.01 -0.32 11.02 -1 10 C-0.9765625 7.51953125 -0.9765625 7.51953125 -0.625 4.8125 C-0.51414062 3.91144531 -0.40328125 3.01039063 -0.2890625 2.08203125 C-0.19367187 1.39496094 -0.09828125 0.70789063 0 0 Z " fill="#0C1A4B" transform="translate(548,420)"/>
<path d="M0 0 C0.33 0.99 0.66 1.98 1 3 C-2.42521129 7.12781873 -4.42458383 9.31532061 -9.875 9.875 C-11.2489486 9.94301726 -12.62438242 9.99388614 -14 10 C-13.67 9.01 -13.34 8.02 -13 7 C-11.02 7 -9.04 7 -7 7 C-7 6.34 -7 5.68 -7 5 C-6.030625 4.54625 -5.06125 4.0925 -4.0625 3.625 C-0.92920418 2.34213779 -0.92920418 2.34213779 0 0 Z " fill="#091245" transform="translate(471,449)"/>
<path d="M0 0 C-3.96 3.3 -7.92 6.6 -12 10 C-12.66 9.67 -13.32 9.34 -14 9 C-11.56990423 4.39560801 -8.80243245 1.04090348 -3.8125 -0.8125 C-2 -1 -2 -1 0 0 Z " fill="#0E1D4C" transform="translate(592,389)"/>
<path d="M0 0 C2.48020497 0.11341491 4.95844969 0.24014686 7.4375 0.375 C8.14455078 0.4059375 8.85160156 0.436875 9.58007812 0.46875 C11.39239188 0.57280629 13.19817988 0.77919892 15 1 C15.33 1.66 15.66 2.32 16 3 C11.01477501 4.66174166 6.70055962 4.81485148 2 2.5625 C1.34 2.046875 0.68 1.53125 0 1 C0 0.67 0 0.34 0 0 Z " fill="#1A2B5C" transform="translate(449,454)"/>
<path d="M0 0 C3.96 0 7.92 0 12 0 C12 0.99 12 1.98 12 3 C7.71 3 3.42 3 -1 3 C-0.67 2.01 -0.34 1.02 0 0 Z " fill="#132454" transform="translate(362,677)"/>
<path d="M0 0 C0.33 0.66 0.66 1.32 1 2 C-1 4 -3 6 -5 8 C-5.36760731 10.32817964 -5.70241581 12.6618385 -6 15 C-6.33 15 -6.66 15 -7 15 C-8.33380884 8.81597718 -8.33380884 8.81597718 -6.875 5.25 C-4.81482742 2.7777929 -2.84870186 1.4628469 0 0 Z " fill="#0B1746" transform="translate(681,266)"/>
<path d="M0 0 C0 0.99 0 1.98 0 3 C-6.435 3.495 -6.435 3.495 -13 4 C-12.67 3.34 -12.34 2.68 -12 2 C-10.0390625 1.3671875 -10.0390625 1.3671875 -7.625 0.875 C-6.83351563 0.70742188 -6.04203125 0.53984375 -5.2265625 0.3671875 C-3 0 -3 0 0 0 Z " fill="#11204F" transform="translate(428,264)"/>
<path d="M0 0 C4.62 0 9.24 0 14 0 C14 0.99 14 1.98 14 3 C10.7 3 7.4 3 4 3 C4 2.34 4 1.68 4 1 C2.68 0.67 1.36 0.34 0 0 Z " fill="#213463" transform="translate(466,257)"/>
<path d="M0 0 C-4.39453125 4.00390625 -4.39453125 4.00390625 -6 5 C-6.99 4.67 -7.98 4.34 -9 4 C-8.34 3.34 -7.68 2.68 -7 2 C-8.65 1.67 -10.3 1.34 -12 1 C-12 0.67 -12 0.34 -12 0 C-10.37585622 -0.19477739 -8.75063577 -0.38059458 -7.125 -0.5625 C-6.22007812 -0.66691406 -5.31515625 -0.77132813 -4.3828125 -0.87890625 C-2 -1 -2 -1 0 0 Z " fill="#28345D" transform="translate(587,355)"/>
<path d="M0 0 C0.33 0 0.66 0 1 0 C1.98262143 7.20983676 2.6644984 12.55048282 -1 19 C-1.33 19 -1.66 19 -2 19 C-1.7834375 17.081875 -1.7834375 17.081875 -1.5625 15.125 C-1.00185355 10.08719116 -0.49498469 5.04463121 0 0 Z " fill="#061448" transform="translate(503,707)"/>
<path d="M0 0 C0.33 0 0.66 0 1 0 C1 3.96 1 7.92 1 12 C-3 8 -3 8 -3.25 4.75 C-3.1675 3.8425 -3.085 2.935 -3 2 C-2.67 3.32 -2.34 4.64 -2 6 C-1.34 6 -0.68 6 0 6 C0 4.02 0 2.04 0 0 Z " fill="#153265" transform="translate(651,706)"/>
<path d="M0 0 C-0.75 5.75 -0.75 5.75 -3 8 C-3 7.01 -3 6.02 -3 5 C-3.99 4.67 -4.98 4.34 -6 4 C-2.25 0 -2.25 0 0 0 Z " fill="#0A1849" transform="translate(466,412)"/>
<path d="M0 0 C8.57142857 0.85714286 8.57142857 0.85714286 12 3 C9.29120665 4.35439668 6.99066732 4.06501451 4 4 C4 3.01 4 2.02 4 1 C2.68 0.67 1.36 0.34 0 0 Z " fill="#0A1646" transform="translate(524,421)"/>
<path d="M0 0 C3.91211733 1.15585285 6.8745041 2.35534962 10 5 C9.06027344 4.87431641 9.06027344 4.87431641 8.1015625 4.74609375 C6.87566406 4.59333984 6.87566406 4.59333984 5.625 4.4375 C4.40683594 4.28087891 4.40683594 4.28087891 3.1640625 4.12109375 C0.95100814 3.81762672 0.95100814 3.81762672 -1 5 C-0.67 3.35 -0.34 1.7 0 0 Z " fill="#0B1B4F" transform="translate(305,721)"/>
<path d="M0 0 C1.485 0.99 1.485 0.99 3 2 C3 3.32 3 4.64 3 6 C5.31 6.66 7.62 7.32 10 8 C6.23375329 9.25541557 4.62811066 8.37061958 1 7 C0.67 4.69 0.34 2.38 0 0 Z " fill="#081243" transform="translate(487,395)"/>
<path d="M0 0 C4.29 0 8.58 0 13 0 C13 0.33 13 0.66 13 1 C10.36 1 7.72 1 5 1 C4.67 1.99 4.34 2.98 4 4 C1 2 1 2 0 0 Z " fill="#183064" transform="translate(524,360)"/>
<path d="M0 0 C0.99 0.33 1.98 0.66 3 1 C2.67 4.63 2.34 8.26 2 12 C1.67 12 1.34 12 1 12 C0.67 8.04 0.34 4.08 0 0 Z " fill="#233463" transform="translate(627,479)"/>
<path d="M0 0 C0.33 0 0.66 0 1 0 C1.12117188 0.61488281 1.24234375 1.22976563 1.3671875 1.86328125 C1.53476562 2.67152344 1.70234375 3.47976563 1.875 4.3125 C2.03742188 5.11300781 2.19984375 5.91351563 2.3671875 6.73828125 C2.94478999 9.25301118 2.94478999 9.25301118 5 12 C1.51359193 10.91801129 0.92707645 9.86630682 -0.875 6.5625 C-1.24625 5.386875 -1.6175 4.21125 -2 3 C-1.34 2.01 -0.68 1.02 0 0 Z " fill="#081241" transform="translate(450,443)"/>
<path d="M0 0 C0.33 0 0.66 0 1 0 C1.26252625 4.33168317 0.29243536 7.8803623 -1 12 C-1.33 12 -1.66 12 -2 12 C-2.05422947 10.5629191 -2.09289723 9.12524538 -2.125 7.6875 C-2.14820313 6.88699219 -2.17140625 6.08648438 -2.1953125 5.26171875 C-2 3 -2 3 0 0 Z " fill="#081245" transform="translate(454,704)"/>
<path d="M0 0 C0.66 1.32 1.32 2.64 2 4 C0.35 5.98 -1.3 7.96 -3 10 C-3.33 9.34 -3.66 8.68 -4 8 C-3.22265625 6.0546875 -3.22265625 6.0546875 -2.0625 3.875 C-1.49208984 2.78832031 -1.49208984 2.78832031 -0.91015625 1.6796875 C-0.60980469 1.12539063 -0.30945313 0.57109375 0 0 Z " fill="#061446" transform="translate(625,581)"/>
<path d="M0 0 C0.33 0.66 0.66 1.32 1 2 C0.67 2.99 0.34 3.98 0 5 C-3.0625 6.1875 -3.0625 6.1875 -6 7 C-4.60667426 3.63279613 -3.0210714 2.0140476 0 0 Z " fill="#0B1B4D" transform="translate(392,281)"/>
</svg>
